<svg xmlns="http://www.w3.org/2000/svg" width="142" height="20" role="img" aria-label="Made with Maestro">
  <!-- Left section (icon) - darker purple -->
  <rect width="20" height="20" rx="3" fill="#5B3D8A"/>

  <!-- Maestro glyph scaled to fit -->
  <g transform="translate(3,3) scale(0.5833)">
    <path d="m21.64 3.64-1.28-1.28a1.21 1.21 0 0 0-1.72 0L2.36 18.64a1.21 1.21 0 0 0 0 1.72l1.28 1.28a1.2 1.2 0 0 0 1.72 0L21.64 5.36a1.2 1.2 0 0 0 0-1.72" fill="none" stroke="#fff" stroke-width="2" stroke-linecap="round" stroke-linejoin="round"/>
    <path d="m14 7 3 3M5 6v4M19 14v4M10 2v2M7 8H3M21 16h-4M11 3H9" fill="none" stroke="#fff" stroke-width="2" stroke-linecap="round" stroke-linejoin="round"/>
  </g>

  <!-- Right section (text) - lighter purple -->
  <rect x="18" width="124" height="20" rx="3" fill="#8B5CF6"/>
  <rect x="18" width="5" height="20" fill="#5B3D8A"/>

  <!-- Text with left padding -->
  <text x="83" y="14" font-family="DejaVu Sans Mono,Consolas,Monaco,Liberation Mono,Lucida Console,monospace" font-size="11" fill="#fff" text-anchor="middle">Made with Maestro</text>
</svg>
